<svg xmlns="http://www.w3.org/2000/svg" xmlns:xlink="http://www.w3.org/1999/xlink" width="500" zoomAndPan="magnify" viewBox="0 0 375 374.999991" height="500" preserveAspectRatio="xMidYMid meet" version="1.2"><g id="151e9c88d7"><rect x="0" width="375" y="0" height="374.999991" style="fill:#ffffff;fill-opacity:1;stroke:none;"/><rect x="0" width="375" y="0" height="374.999991" style="fill:#133171;fill-opacity:1;stroke:none;"/><path style=" stroke:none;fill-rule:nonzero;fill:#ffffff;fill-opacity:1;" d="M 152.875 112.152344 L 233.121094 250.429688 L 195.777344 250.433594 L 152.875 177.300781 L 129.042969 217.847656 L 140.15625 217.835938 L 159.242188 250.441406 L 72.613281 250.433594 Z M 152.875 112.152344 "/><path style=" stroke:none;fill-rule:nonzero;fill:#ffffff;fill-opacity:1;" d="M 292.710938 250.425781 C 280.261719 250.425781 267.816406 250.425781 255.367188 250.425781 C 237.886719 220.492188 220.410156 190.5625 202.929688 160.628906 C 220.414062 160.628906 237.894531 160.628906 255.378906 160.628906 C 259.097656 158.800781 262.25 154.945312 261.039062 150.484375 C 260.539062 147.503906 257.664062 144.734375 254.839844 143.933594 C 234.359375 143.933594 213.875 143.933594 193.394531 143.933594 C 187.125 133.078125 180.859375 122.222656 174.589844 111.367188 C 203.371094 111.445312 232.183594 111.210938 260.941406 111.484375 C 269.066406 112.914062 276.351562 117.242188 281.710938 123.414062 C 287.664062 129.816406 292.390625 137.789062 293.320312 146.640625 C 294.289062 156.132812 292.921875 166.203125 287.292969 174.164062 C 284.492188 178.191406 280.894531 181.851562 277.105469 184.972656 C 271.855469 188.75 265.746094 191.386719 259.347656 192.445312 C 270.46875 211.769531 281.589844 231.097656 292.710938 250.425781 Z M 292.710938 250.425781 "/></g></svg>